<?xml version="1.0" encoding="UTF-8" standalone="no"?>
<!DOCTYPE svg PUBLIC "-//W3C//DTD SVG 1.1//EN"
 "http://www.w3.org/Graphics/SVG/1.1/DTD/svg11.dtd">
<!-- Generated by graphviz version 2.43.0 (0)
 -->
<!-- Title: turing_machine Pages: 1 -->
<svg width="643pt" height="948pt"
 viewBox="0.00 0.00 643.00 948.36" xmlns="http://www.w3.org/2000/svg" xmlns:xlink="http://www.w3.org/1999/xlink">
<g id="graph0" class="graph" transform="scale(1 1) rotate(0) translate(4 944.36)">
<title>turing_machine</title>
<polygon fill="white" stroke="transparent" points="-4,4 -4,-944.36 639,-944.36 639,4 -4,4"/>
<!-- q0 -->
<g id="node1" class="node">
<title>q0</title>
<ellipse fill="#cccccc" stroke="#cccccc" cx="57.5" cy="-916.86" rx="19.5" ry="19.5"/>
<ellipse fill="none" stroke="#cccccc" cx="57.5" cy="-916.86" rx="23.5" ry="23.5"/>
<text text-anchor="middle" x="57.5" y="-913.16" font-family="Times,serif" font-size="14.00">q0</text>
</g>
<!-- q1 -->
<g id="node3" class="node">
<title>q1</title>
<ellipse fill="none" stroke="#555555" cx="57.5" cy="-822.86" rx="19.5" ry="19.5"/>
<text text-anchor="middle" x="57.5" y="-819.16" font-family="Times,serif" font-size="14.00" fill="#555555">q1</text>
</g>
<!-- q0&#45;&gt;q1 -->
<g id="edge1" class="edge">
<title>q0&#45;&gt;q1</title>
<path fill="none" stroke="#ffb20f" d="M57.5,-893.12C57.5,-880.98 57.5,-865.91 57.5,-852.93"/>
<polygon fill="#ffb20f" stroke="#ffb20f" points="61,-852.63 57.5,-842.63 54,-852.63 61,-852.63"/>
<text text-anchor="middle" x="84" y="-864.16" font-family="Times,serif" font-size="14.00" fill="#ffb20f"> &#160;$, $, R &#160;</text>
</g>
<!-- qA -->
<g id="node2" class="node">
<title>qA</title>
<ellipse fill="none" stroke="#555555" cx="261.5" cy="-25.45" rx="21.4" ry="21.4"/>
<ellipse fill="none" stroke="#555555" cx="261.5" cy="-25.45" rx="25.4" ry="25.4"/>
<text text-anchor="middle" x="261.5" y="-21.75" font-family="Times,serif" font-size="14.00" fill="#555555">qA</text>
</g>
<!-- q1&#45;&gt;q1 -->
<g id="edge2" class="edge">
<title>q1&#45;&gt;q1</title>
<path fill="none" stroke="#1a936f" d="M75.63,-830.72C85.71,-832.19 95,-829.57 95,-822.86 95,-818.57 91.19,-815.95 85.8,-815.01"/>
<polygon fill="#1a936f" stroke="#1a936f" points="85.63,-811.51 75.63,-815.01 85.63,-818.51 85.63,-811.51"/>
<text text-anchor="middle" x="127.5" y="-819.16" font-family="Times,serif" font-size="14.00" fill="#1a936f"> &#160;@, @, R &#160;</text>
</g>
<!-- q2 -->
<g id="node4" class="node">
<title>q2</title>
<ellipse fill="none" stroke="#555555" cx="133.5" cy="-732.87" rx="19.5" ry="19.5"/>
<text text-anchor="middle" x="133.5" y="-729.17" font-family="Times,serif" font-size="14.00" fill="#555555">q2</text>
</g>
<!-- q1&#45;&gt;q2 -->
<g id="edge3" class="edge">
<title>q1&#45;&gt;q2</title>
<path fill="none" stroke="#555555" d="M70.05,-807.33C82.11,-793.37 100.51,-772.07 114.39,-755.99"/>
<polygon fill="#555555" stroke="#555555" points="117.29,-757.98 121.18,-748.13 112,-753.41 117.29,-757.98"/>
<text text-anchor="middle" x="130" y="-774.17" font-family="Times,serif" font-size="14.00" fill="#555555"> &#160;1, @, R &#160;</text>
</g>
<!-- q2&#45;&gt;q2 -->
<g id="edge4" class="edge">
<title>q2&#45;&gt;q2</title>
<path fill="none" stroke="#26547c" d="M151.63,-740.72C161.71,-742.19 171,-739.57 171,-732.87 171,-728.57 167.19,-725.96 161.8,-725.01"/>
<polygon fill="#26547c" stroke="#26547c" points="161.63,-721.51 151.63,-725.01 161.63,-728.51 161.63,-721.51"/>
<text text-anchor="middle" x="197.5" y="-729.17" font-family="Times,serif" font-size="14.00" fill="#26547c"> &#160;1, 1, R &#160;</text>
</g>
<!-- q3 -->
<g id="node5" class="node">
<title>q3</title>
<ellipse fill="none" stroke="#555555" cx="178.5" cy="-642.87" rx="19.5" ry="19.5"/>
<text text-anchor="middle" x="178.5" y="-639.17" font-family="Times,serif" font-size="14.00" fill="#555555">q3</text>
</g>
<!-- q2&#45;&gt;q3 -->
<g id="edge5" class="edge">
<title>q2&#45;&gt;q3</title>
<path fill="none" stroke="#ef476f" d="M142.17,-714.9C148.75,-702.04 157.91,-684.14 165.38,-669.53"/>
<polygon fill="#ef476f" stroke="#ef476f" points="168.56,-670.98 170,-660.49 162.33,-667.8 168.56,-670.98"/>
<text text-anchor="middle" x="186" y="-684.17" font-family="Times,serif" font-size="14.00" fill="#ef476f"> &#160;#, #, R &#160;</text>
</g>
<!-- q3&#45;&gt;q3 -->
<g id="edge6" class="edge">
<title>q3&#45;&gt;q3</title>
<path fill="none" stroke="#ffb20f" d="M196.63,-650.73C206.71,-652.19 216,-649.57 216,-642.87 216,-638.58 212.19,-635.96 206.8,-635.02"/>
<polygon fill="#ffb20f" stroke="#ffb20f" points="206.63,-631.52 196.63,-635.02 206.63,-638.52 206.63,-631.52"/>
<text text-anchor="middle" x="242.5" y="-639.17" font-family="Times,serif" font-size="14.00" fill="#ffb20f"> &#160;*, *, R &#160;</text>
</g>
<!-- qVer1 -->
<g id="node6" class="node">
<title>qVer1</title>
<ellipse fill="none" stroke="#555555" cx="213.5" cy="-540.53" rx="31.7" ry="31.7"/>
<text text-anchor="middle" x="213.5" y="-536.83" font-family="Times,serif" font-size="14.00" fill="#555555">qVer1</text>
</g>
<!-- q3&#45;&gt;qVer1 -->
<g id="edge7" class="edge">
<title>q3&#45;&gt;qVer1</title>
<path fill="none" stroke="#1a936f" d="M184.76,-623.93C188.98,-611.82 194.72,-595.35 199.97,-580.32"/>
<polygon fill="#1a936f" stroke="#1a936f" points="203.33,-581.31 203.32,-570.72 196.72,-579.01 203.33,-581.31"/>
<text text-anchor="middle" x="223" y="-594.17" font-family="Times,serif" font-size="14.00" fill="#1a936f"> &#160;1, *, R &#160;</text>
</g>
<!-- q5 -->
<g id="node7" class="node">
<title>q5</title>
<ellipse fill="none" stroke="#555555" cx="370.5" cy="-427.13" rx="19.5" ry="19.5"/>
<text text-anchor="middle" x="370.5" y="-423.43" font-family="Times,serif" font-size="14.00" fill="#555555">q5</text>
</g>
<!-- qVer1&#45;&gt;q5 -->
<g id="edge8" class="edge">
<title>qVer1&#45;&gt;q5</title>
<path fill="none" stroke="#555555" d="M244.81,-533.84C272.32,-527.45 311.97,-514.67 338.5,-490.68 348.89,-481.28 356.4,-467.73 361.52,-455.64"/>
<polygon fill="#555555" stroke="#555555" points="364.92,-456.54 365.27,-445.95 358.39,-454.01 364.92,-456.54"/>
<text text-anchor="middle" x="376.5" y="-479.48" font-family="Times,serif" font-size="14.00" fill="#555555"> &#160;#, #, L &#160;</text>
</g>
<!-- q4 -->
<g id="node8" class="node">
<title>q4</title>
<ellipse fill="none" stroke="#555555" cx="19.5" cy="-427.13" rx="19.5" ry="19.5"/>
<text text-anchor="middle" x="19.5" y="-423.43" font-family="Times,serif" font-size="14.00" fill="#555555">q4</text>
</g>
<!-- qVer1&#45;&gt;q4 -->
<g id="edge9" class="edge">
<title>qVer1&#45;&gt;q4</title>
<path fill="none" stroke="#26547c" d="M186.11,-523.8C148.63,-502.28 81.82,-463.91 45.22,-442.9"/>
<polygon fill="#26547c" stroke="#26547c" points="46.59,-439.65 36.17,-437.71 43.1,-445.72 46.59,-439.65"/>
<text text-anchor="middle" x="154.5" y="-479.48" font-family="Times,serif" font-size="14.00" fill="#26547c"> &#160;1, 1, L &#160;</text>
</g>
<!-- qAux -->
<g id="node13" class="node">
<title>qAux</title>
<ellipse fill="none" stroke="#555555" cx="297.5" cy="-427.13" rx="30.59" ry="30.59"/>
<text text-anchor="middle" x="297.5" y="-423.43" font-family="Times,serif" font-size="14.00" fill="#555555">qAux</text>
</g>
<!-- qVer1&#45;&gt;qAux -->
<g id="edge30" class="edge">
<title>qVer1&#45;&gt;qAux</title>
<path fill="none" stroke="#ef476f" d="M239.39,-521.47C250.06,-513.06 261.92,-502.33 270.5,-490.68 276,-483.21 280.67,-474.44 284.49,-465.87"/>
<polygon fill="#ef476f" stroke="#ef476f" points="287.84,-466.94 288.46,-456.36 281.38,-464.25 287.84,-466.94"/>
<text text-anchor="middle" x="307" y="-479.48" font-family="Times,serif" font-size="14.00" fill="#ef476f"> &#160;B, #, R &#160;</text>
</g>
<!-- q5&#45;&gt;q5 -->
<g id="edge14" class="edge">
<title>q5&#45;&gt;q5</title>
<path fill="none" stroke="#26547c" d="M389.79,-430.53C399.41,-431 408,-429.87 408,-427.13 408,-425.46 404.81,-424.39 400.14,-423.92"/>
<polygon fill="#26547c" stroke="#26547c" points="399.85,-420.41 389.79,-423.73 399.73,-427.41 399.85,-420.41"/>
<text text-anchor="middle" x="434" y="-423.43" font-family="Times,serif" font-size="14.00" fill="#26547c"> &#160;1, 1, L &#160;</text>
</g>
<!-- q5&#45;&gt;q5 -->
<g id="edge15" class="edge">
<title>q5&#45;&gt;q5</title>
<path fill="none" stroke="#ef476f" d="M389.72,-432.04C417.52,-435.99 460,-434.35 460,-427.13 460,-420.76 426.9,-418.74 400.01,-421.07"/>
<polygon fill="#ef476f" stroke="#ef476f" points="399.27,-417.63 389.72,-422.22 400.05,-424.58 399.27,-417.63"/>
<text text-anchor="middle" x="486" y="-423.43" font-family="Times,serif" font-size="14.00" fill="#ef476f"> &#160;#, #, L &#160;</text>
</g>
<!-- q5&#45;&gt;q5 -->
<g id="edge16" class="edge">
<title>q5&#45;&gt;q5</title>
<path fill="none" stroke="#ffb20f" d="M389.39,-432.95C430.62,-440.75 512,-438.81 512,-427.13 512,-416.34 442.55,-413.87 399.46,-419.7"/>
<polygon fill="#ffb20f" stroke="#ffb20f" points="398.71,-416.28 389.39,-421.32 399.82,-423.19 398.71,-416.28"/>
<text text-anchor="middle" x="538" y="-423.43" font-family="Times,serif" font-size="14.00" fill="#ffb20f"> &#160;*, *, L &#160;</text>
</g>
<!-- qVer2 -->
<g id="node9" class="node">
<title>qVer2</title>
<ellipse fill="none" stroke="#555555" cx="330.5" cy="-313.74" rx="31.7" ry="31.7"/>
<text text-anchor="middle" x="330.5" y="-310.04" font-family="Times,serif" font-size="14.00" fill="#555555">qVer2</text>
</g>
<!-- q5&#45;&gt;qVer2 -->
<g id="edge17" class="edge">
<title>q5&#45;&gt;qVer2</title>
<path fill="none" stroke="#1a936f" d="M356.12,-413.57C347.19,-404.78 336.49,-392.22 331.5,-378.58 328.87,-371.42 327.59,-363.49 327.11,-355.73"/>
<polygon fill="#1a936f" stroke="#1a936f" points="330.61,-355.62 326.9,-345.7 323.61,-355.77 330.61,-355.62"/>
<text text-anchor="middle" x="364" y="-367.38" font-family="Times,serif" font-size="14.00" fill="#1a936f"> &#160;@, @, R &#160;</text>
</g>
<!-- q4&#45;&gt;q1 -->
<g id="edge13" class="edge">
<title>q4&#45;&gt;q1</title>
<path fill="none" stroke="#555555" d="M25.28,-446.05C31.8,-467.89 41.5,-506.01 41.5,-539.53 41.5,-733.87 41.5,-733.87 41.5,-733.87 41.5,-754.18 45.68,-776.72 49.76,-793.9"/>
<polygon fill="#555555" stroke="#555555" points="46.43,-794.99 52.26,-803.84 53.22,-793.29 46.43,-794.99"/>
<text text-anchor="middle" x="74" y="-639.17" font-family="Times,serif" font-size="14.00" fill="#555555"> &#160;@, @, R &#160;</text>
</g>
<!-- q4&#45;&gt;q4 -->
<g id="edge10" class="edge">
<title>q4&#45;&gt;q4</title>
<path fill="none" stroke="#ef476f" d="M38.79,-430.53C48.41,-431 57,-429.87 57,-427.13 57,-425.46 53.81,-424.39 49.14,-423.92"/>
<polygon fill="#ef476f" stroke="#ef476f" points="48.85,-420.41 38.79,-423.73 48.73,-427.41 48.85,-420.41"/>
<text text-anchor="middle" x="83" y="-423.43" font-family="Times,serif" font-size="14.00" fill="#ef476f"> &#160;1, 1, L &#160;</text>
</g>
<!-- q4&#45;&gt;q4 -->
<g id="edge11" class="edge">
<title>q4&#45;&gt;q4</title>
<path fill="none" stroke="#ffb20f" d="M38.72,-432.04C66.52,-435.99 109,-434.35 109,-427.13 109,-420.76 75.9,-418.74 49.01,-421.07"/>
<polygon fill="#ffb20f" stroke="#ffb20f" points="48.27,-417.63 38.72,-422.22 49.05,-424.58 48.27,-417.63"/>
<text text-anchor="middle" x="135" y="-423.43" font-family="Times,serif" font-size="14.00" fill="#ffb20f"> &#160;*, *, L &#160;</text>
</g>
<!-- q4&#45;&gt;q4 -->
<g id="edge12" class="edge">
<title>q4&#45;&gt;q4</title>
<path fill="none" stroke="#1a936f" d="M38.39,-432.95C79.62,-440.75 161,-438.81 161,-427.13 161,-416.34 91.55,-413.87 48.46,-419.7"/>
<polygon fill="#1a936f" stroke="#1a936f" points="47.71,-416.28 38.39,-421.32 48.82,-423.19 47.71,-416.28"/>
<text text-anchor="middle" x="187" y="-423.43" font-family="Times,serif" font-size="14.00" fill="#1a936f"> &#160;#, #, L &#160;</text>
</g>
<!-- q7 -->
<g id="node10" class="node">
<title>q7</title>
<ellipse fill="none" stroke="#555555" cx="261.5" cy="-211.39" rx="19.5" ry="19.5"/>
<text text-anchor="middle" x="261.5" y="-207.69" font-family="Times,serif" font-size="14.00" fill="#555555">q7</text>
</g>
<!-- qVer2&#45;&gt;q7 -->
<g id="edge18" class="edge">
<title>qVer2&#45;&gt;q7</title>
<path fill="none" stroke="#555555" d="M301.59,-299.9C287.1,-291.81 270.88,-279.85 262.5,-263.89 258.9,-257.03 257.62,-248.92 257.5,-241.18"/>
<polygon fill="#555555" stroke="#555555" points="261.01,-241.17 257.96,-231.03 254.01,-240.86 261.01,-241.17"/>
<text text-anchor="middle" x="288.5" y="-252.69" font-family="Times,serif" font-size="14.00" fill="#555555"> &#160;#, #, L &#160;</text>
</g>
<!-- q6 -->
<g id="node11" class="node">
<title>q6</title>
<ellipse fill="none" stroke="#555555" cx="402.5" cy="-211.39" rx="19.5" ry="19.5"/>
<text text-anchor="middle" x="402.5" y="-207.69" font-family="Times,serif" font-size="14.00" fill="#555555">q6</text>
</g>
<!-- qVer2&#45;&gt;q6 -->
<g id="edge19" class="edge">
<title>qVer2&#45;&gt;q6</title>
<path fill="none" stroke="#26547c" d="M328.22,-281.85C328.79,-270.68 331.16,-258.47 337.5,-248.89 340.01,-245.09 359.45,-234.41 376.42,-225.58"/>
<polygon fill="#26547c" stroke="#26547c" points="378.18,-228.61 385.47,-220.92 374.98,-222.39 378.18,-228.61"/>
<text text-anchor="middle" x="367" y="-252.69" font-family="Times,serif" font-size="14.00" fill="#26547c"> &#160;1, @, R &#160;</text>
</g>
<!-- q7&#45;&gt;q7 -->
<g id="edge24" class="edge">
<title>q7&#45;&gt;q7</title>
<path fill="none" stroke="#26547c" d="M279.63,-219.25C289.71,-220.71 299,-218.09 299,-211.39 299,-207.1 295.19,-204.48 289.8,-203.54"/>
<polygon fill="#26547c" stroke="#26547c" points="289.63,-200.04 279.63,-203.54 289.63,-207.04 289.63,-200.04"/>
<text text-anchor="middle" x="328" y="-207.69" font-family="Times,serif" font-size="14.00" fill="#26547c"> &#160;@, 1, L &#160;</text>
</g>
<!-- q8 -->
<g id="node12" class="node">
<title>q8</title>
<ellipse fill="none" stroke="#555555" cx="261.5" cy="-121.39" rx="19.5" ry="19.5"/>
<text text-anchor="middle" x="261.5" y="-117.69" font-family="Times,serif" font-size="14.00" fill="#555555">q8</text>
</g>
<!-- q7&#45;&gt;q8 -->
<g id="edge25" class="edge">
<title>q7&#45;&gt;q8</title>
<path fill="none" stroke="#ef476f" d="M261.5,-191.73C261.5,-179.95 261.5,-164.48 261.5,-151.15"/>
<polygon fill="#ef476f" stroke="#ef476f" points="265,-151.03 261.5,-141.03 258,-151.03 265,-151.03"/>
<text text-anchor="middle" x="288" y="-162.69" font-family="Times,serif" font-size="14.00" fill="#ef476f"> &#160;$, $, R &#160;</text>
</g>
<!-- q6&#45;&gt;q5 -->
<g id="edge23" class="edge">
<title>q6&#45;&gt;q5</title>
<path fill="none" stroke="#555555" d="M404.57,-231.01C407.43,-262.19 410.77,-326.66 396.5,-378.58 394.29,-386.62 390.5,-394.79 386.48,-402.04"/>
<polygon fill="#555555" stroke="#555555" points="383.46,-400.26 381.37,-410.64 389.48,-403.83 383.46,-400.26"/>
<text text-anchor="middle" x="433.5" y="-310.04" font-family="Times,serif" font-size="14.00" fill="#555555"> &#160;B, 1, L &#160;</text>
</g>
<!-- q6&#45;&gt;q6 -->
<g id="edge20" class="edge">
<title>q6&#45;&gt;q6</title>
<path fill="none" stroke="#ef476f" d="M422.18,-214.07C431.64,-214.41 440,-213.51 440,-211.39 440,-210.1 436.89,-209.26 432.33,-208.88"/>
<polygon fill="#ef476f" stroke="#ef476f" points="432.23,-205.38 422.18,-208.71 432.12,-212.38 432.23,-205.38"/>
<text text-anchor="middle" x="466.5" y="-207.69" font-family="Times,serif" font-size="14.00" fill="#ef476f"> &#160;1, 1, R &#160;</text>
</g>
<!-- q6&#45;&gt;q6 -->
<g id="edge21" class="edge">
<title>q6&#45;&gt;q6</title>
<path fill="none" stroke="#ffb20f" d="M421.85,-215.25C449.93,-218.35 493,-217.06 493,-211.39 493,-206.36 459.13,-204.78 431.89,-206.65"/>
<polygon fill="#ffb20f" stroke="#ffb20f" points="431.5,-203.17 421.85,-207.54 432.12,-210.14 431.5,-203.17"/>
<text text-anchor="middle" x="519.5" y="-207.69" font-family="Times,serif" font-size="14.00" fill="#ffb20f"> &#160;#, #, R &#160;</text>
</g>
<!-- q6&#45;&gt;q6 -->
<g id="edge22" class="edge">
<title>q6&#45;&gt;q6</title>
<path fill="none" stroke="#1a936f" d="M421.54,-215.96C463.23,-222.09 546,-220.56 546,-211.39 546,-202.92 475.36,-200.97 431.72,-205.55"/>
<polygon fill="#1a936f" stroke="#1a936f" points="431.03,-202.11 421.54,-206.82 431.89,-209.06 431.03,-202.11"/>
<text text-anchor="middle" x="572.5" y="-207.69" font-family="Times,serif" font-size="14.00" fill="#1a936f"> &#160;*, *, R &#160;</text>
</g>
<!-- q8&#45;&gt;qA -->
<g id="edge29" class="edge">
<title>q8&#45;&gt;qA</title>
<path fill="none" stroke="#26547c" d="M261.5,-101.83C261.5,-90.24 261.5,-74.96 261.5,-61.18"/>
<polygon fill="#26547c" stroke="#26547c" points="265,-61.02 261.5,-51.02 258,-61.02 265,-61.02"/>
<text text-anchor="middle" x="289" y="-72.7" font-family="Times,serif" font-size="14.00" fill="#26547c"> &#160;B, 1, R &#160;</text>
</g>
<!-- q8&#45;&gt;q8 -->
<g id="edge26" class="edge">
<title>q8&#45;&gt;q8</title>
<path fill="none" stroke="#ffb20f" d="M281.18,-124.08C290.64,-124.41 299,-123.51 299,-121.39 299,-120.1 295.89,-119.27 291.33,-118.88"/>
<polygon fill="#ffb20f" stroke="#ffb20f" points="291.23,-115.38 281.18,-118.71 291.12,-122.38 291.23,-115.38"/>
<text text-anchor="middle" x="325.5" y="-117.69" font-family="Times,serif" font-size="14.00" fill="#ffb20f"> &#160;1, 1, R &#160;</text>
</g>
<!-- q8&#45;&gt;q8 -->
<g id="edge27" class="edge">
<title>q8&#45;&gt;q8</title>
<path fill="none" stroke="#1a936f" d="M280.85,-125.25C308.93,-128.35 352,-127.07 352,-121.39 352,-116.37 318.13,-114.78 290.89,-116.65"/>
<polygon fill="#1a936f" stroke="#1a936f" points="290.5,-113.17 280.85,-117.54 291.12,-120.15 290.5,-113.17"/>
<text text-anchor="middle" x="378.5" y="-117.69" font-family="Times,serif" font-size="14.00" fill="#1a936f"> &#160;#, #, R &#160;</text>
</g>
<!-- q8&#45;&gt;q8 -->
<g id="edge28" class="edge">
<title>q8&#45;&gt;q8</title>
<path fill="none" stroke="#555555" d="M280.54,-125.96C322.23,-132.09 405,-130.57 405,-121.39 405,-112.92 334.36,-110.97 290.72,-115.56"/>
<polygon fill="#555555" stroke="#555555" points="290.03,-112.12 280.54,-116.83 290.89,-119.06 290.03,-112.12"/>
<text text-anchor="middle" x="431.5" y="-117.69" font-family="Times,serif" font-size="14.00" fill="#555555"> &#160;*, 1, R &#160;</text>
</g>
<!-- qAux&#45;&gt;qVer1 -->
<g id="edge31" class="edge">
<title>qAux&#45;&gt;qVer1</title>
<path fill="none" stroke="#ffb20f" d="M274.09,-447.05C268.81,-450.85 263.1,-454.61 257.5,-457.68 237.88,-468.42 223.17,-457.25 210.5,-475.68 205.71,-482.63 204.04,-491.09 204.05,-499.55"/>
<polygon fill="#ffb20f" stroke="#ffb20f" points="200.57,-500.04 204.79,-509.76 207.55,-499.53 200.57,-500.04"/>
<text text-anchor="middle" x="238.5" y="-479.48" font-family="Times,serif" font-size="14.00" fill="#ffb20f"> &#160;B, B, L &#160;</text>
</g>
</g>
</svg>
