<?xml version="1.0" encoding="UTF-8" standalone="no"?>
<!DOCTYPE svg PUBLIC "-//W3C//DTD SVG 1.1//EN"
 "http://www.w3.org/Graphics/SVG/1.1/DTD/svg11.dtd">
<!-- Generated by graphviz version 2.43.0 (0)
 -->
<!-- Title: turing_machine Pages: 1 -->
<svg width="467pt" height="783pt"
 viewBox="0.00 0.00 467.00 782.97" xmlns="http://www.w3.org/2000/svg" xmlns:xlink="http://www.w3.org/1999/xlink">
<g id="graph0" class="graph" transform="scale(1 1) rotate(0) translate(4 778.97)">
<title>turing_machine</title>
<polygon fill="white" stroke="transparent" points="-4,4 -4,-778.97 463,-778.97 463,4 -4,4"/>
<!-- q0 -->
<g id="node1" class="node">
<title>q0</title>
<ellipse fill="#cccccc" stroke="#cccccc" cx="235.5" cy="-751.47" rx="19.5" ry="19.5"/>
<ellipse fill="none" stroke="#cccccc" cx="235.5" cy="-751.47" rx="23.5" ry="23.5"/>
<text text-anchor="middle" x="235.5" y="-747.77" font-family="Times,serif" font-size="14.00">q0</text>
</g>
<!-- q1 -->
<g id="node3" class="node">
<title>q1</title>
<ellipse fill="none" stroke="#555555" cx="235.5" cy="-657.47" rx="19.5" ry="19.5"/>
<text text-anchor="middle" x="235.5" y="-653.77" font-family="Times,serif" font-size="14.00" fill="#555555">q1</text>
</g>
<!-- q0&#45;&gt;q1 -->
<g id="edge1" class="edge">
<title>q0&#45;&gt;q1</title>
<path fill="none" stroke="#26547c" d="M235.5,-727.73C235.5,-715.59 235.5,-700.52 235.5,-687.54"/>
<polygon fill="#26547c" stroke="#26547c" points="239,-687.24 235.5,-677.24 232,-687.24 239,-687.24"/>
<text text-anchor="middle" x="262" y="-698.77" font-family="Times,serif" font-size="14.00" fill="#26547c"> &#160;$, $, R &#160;</text>
</g>
<!-- q9 -->
<g id="node2" class="node">
<title>q9</title>
<ellipse fill="none" stroke="#555555" cx="23.5" cy="-23.5" rx="19.5" ry="19.5"/>
<ellipse fill="none" stroke="#555555" cx="23.5" cy="-23.5" rx="23.5" ry="23.5"/>
<text text-anchor="middle" x="23.5" y="-19.8" font-family="Times,serif" font-size="14.00" fill="#555555">q9</text>
</g>
<!-- q1&#45;&gt;q1 -->
<g id="edge2" class="edge">
<title>q1&#45;&gt;q1</title>
<path fill="none" stroke="#ef476f" d="M253.63,-665.33C263.71,-666.8 273,-664.18 273,-657.47 273,-653.18 269.19,-650.56 263.8,-649.62"/>
<polygon fill="#ef476f" stroke="#ef476f" points="263.63,-646.12 253.63,-649.62 263.63,-653.12 263.63,-646.12"/>
<text text-anchor="middle" x="299.5" y="-653.77" font-family="Times,serif" font-size="14.00" fill="#ef476f"> &#160;1, 1, R &#160;</text>
</g>
<!-- q2 -->
<g id="node4" class="node">
<title>q2</title>
<ellipse fill="none" stroke="#555555" cx="139.5" cy="-567.48" rx="19.5" ry="19.5"/>
<text text-anchor="middle" x="139.5" y="-563.78" font-family="Times,serif" font-size="14.00" fill="#555555">q2</text>
</g>
<!-- q1&#45;&gt;q2 -->
<g id="edge3" class="edge">
<title>q1&#45;&gt;q2</title>
<path fill="none" stroke="#ffb20f" d="M221.33,-643.49C205.36,-628.85 179.22,-604.88 160.78,-587.99"/>
<polygon fill="#ffb20f" stroke="#ffb20f" points="163.15,-585.41 153.41,-581.23 158.42,-590.57 163.15,-585.41"/>
<text text-anchor="middle" x="218.5" y="-608.78" font-family="Times,serif" font-size="14.00" fill="#ffb20f"> &#160;#, #, L &#160;</text>
</g>
<!-- q2&#45;&gt;q2 -->
<g id="edge4" class="edge">
<title>q2&#45;&gt;q2</title>
<path fill="none" stroke="#1a936f" d="M157.63,-575.33C167.71,-576.8 177,-574.18 177,-567.48 177,-563.18 173.19,-560.57 167.8,-559.62"/>
<polygon fill="#1a936f" stroke="#1a936f" points="167.63,-556.12 157.63,-559.62 167.63,-563.12 167.63,-556.12"/>
<text text-anchor="middle" x="204.5" y="-563.78" font-family="Times,serif" font-size="14.00" fill="#1a936f"> &#160;1, A, R &#160;</text>
</g>
<!-- q3 -->
<g id="node5" class="node">
<title>q3</title>
<ellipse fill="none" stroke="#555555" cx="30.5" cy="-477.48" rx="19.5" ry="19.5"/>
<text text-anchor="middle" x="30.5" y="-473.78" font-family="Times,serif" font-size="14.00" fill="#555555">q3</text>
</g>
<!-- q2&#45;&gt;q3 -->
<g id="edge5" class="edge">
<title>q2&#45;&gt;q3</title>
<path fill="none" stroke="#555555" d="M124.8,-554.61C106.43,-539.78 74.81,-514.25 53.29,-496.88"/>
<polygon fill="#555555" stroke="#555555" points="55.29,-494 45.31,-490.44 50.9,-499.45 55.29,-494"/>
<text text-anchor="middle" x="118" y="-518.78" font-family="Times,serif" font-size="14.00" fill="#555555"> &#160;#, #, R &#160;</text>
</g>
<!-- q3&#45;&gt;q3 -->
<g id="edge6" class="edge">
<title>q3&#45;&gt;q3</title>
<path fill="none" stroke="#26547c" d="M50.18,-480.16C59.64,-480.5 68,-479.6 68,-477.48 68,-476.19 64.89,-475.35 60.33,-474.97"/>
<polygon fill="#26547c" stroke="#26547c" points="60.23,-471.47 50.18,-474.8 60.12,-478.47 60.23,-471.47"/>
<text text-anchor="middle" x="94.5" y="-473.78" font-family="Times,serif" font-size="14.00" fill="#26547c"> &#160;1, 1, R &#160;</text>
</g>
<!-- q3&#45;&gt;q3 -->
<g id="edge7" class="edge">
<title>q3&#45;&gt;q3</title>
<path fill="none" stroke="#ef476f" d="M49.85,-481.34C77.93,-484.44 121,-483.15 121,-477.48 121,-472.45 87.13,-470.87 59.89,-472.74"/>
<polygon fill="#ef476f" stroke="#ef476f" points="59.5,-469.26 49.85,-473.63 60.12,-476.23 59.5,-469.26"/>
<text text-anchor="middle" x="147.5" y="-473.78" font-family="Times,serif" font-size="14.00" fill="#ef476f"> &#160;#, #, R &#160;</text>
</g>
<!-- q3&#45;&gt;q3 -->
<g id="edge8" class="edge">
<title>q3&#45;&gt;q3</title>
<path fill="none" stroke="#ffb20f" d="M49.54,-482.05C91.23,-488.18 174,-486.65 174,-477.48 174,-469.01 103.36,-467.06 59.72,-471.64"/>
<polygon fill="#ffb20f" stroke="#ffb20f" points="59.03,-468.2 49.54,-472.91 59.89,-475.15 59.03,-468.2"/>
<text text-anchor="middle" x="203" y="-473.78" font-family="Times,serif" font-size="14.00" fill="#ffb20f"> &#160;A, A, R &#160;</text>
</g>
<!-- q4 -->
<g id="node6" class="node">
<title>q4</title>
<ellipse fill="none" stroke="#555555" cx="103.5" cy="-387.48" rx="19.5" ry="19.5"/>
<text text-anchor="middle" x="103.5" y="-383.78" font-family="Times,serif" font-size="14.00" fill="#555555">q4</text>
</g>
<!-- q3&#45;&gt;q4 -->
<g id="edge9" class="edge">
<title>q3&#45;&gt;q4</title>
<path fill="none" stroke="#1a936f" d="M42.55,-461.95C54.07,-448.07 71.6,-426.94 84.91,-410.9"/>
<polygon fill="#1a936f" stroke="#1a936f" points="87.73,-412.97 91.43,-403.04 82.35,-408.5 87.73,-412.97"/>
<text text-anchor="middle" x="98.5" y="-428.78" font-family="Times,serif" font-size="14.00" fill="#1a936f"> &#160;B, 1, L &#160;</text>
</g>
<!-- q4&#45;&gt;q4 -->
<g id="edge10" class="edge">
<title>q4&#45;&gt;q4</title>
<path fill="none" stroke="#555555" d="M122.79,-391.49C132.41,-392.04 141,-390.71 141,-387.48 141,-385.52 137.81,-384.26 133.14,-383.7"/>
<polygon fill="#555555" stroke="#555555" points="132.86,-380.19 122.79,-383.48 132.72,-387.19 132.86,-380.19"/>
<text text-anchor="middle" x="167" y="-383.78" font-family="Times,serif" font-size="14.00" fill="#555555"> &#160;1, 1, L &#160;</text>
</g>
<!-- q4&#45;&gt;q4 -->
<g id="edge11" class="edge">
<title>q4&#45;&gt;q4</title>
<path fill="none" stroke="#26547c" d="M122.3,-393.2C150.09,-397.94 193,-396.04 193,-387.48 193,-379.9 159.26,-377.55 132.24,-380.42"/>
<polygon fill="#26547c" stroke="#26547c" points="131.74,-376.95 122.3,-381.77 132.68,-383.89 131.74,-376.95"/>
<text text-anchor="middle" x="219" y="-383.78" font-family="Times,serif" font-size="14.00" fill="#26547c"> &#160;#, #, L &#160;</text>
</g>
<!-- q5 -->
<g id="node7" class="node">
<title>q5</title>
<ellipse fill="none" stroke="#555555" cx="86.5" cy="-297.49" rx="19.5" ry="19.5"/>
<text text-anchor="middle" x="86.5" y="-293.79" font-family="Times,serif" font-size="14.00" fill="#555555">q5</text>
</g>
<!-- q4&#45;&gt;q5 -->
<g id="edge12" class="edge">
<title>q4&#45;&gt;q5</title>
<path fill="none" stroke="#ef476f" d="M99.98,-368.25C97.65,-356.22 94.56,-340.21 91.92,-326.57"/>
<polygon fill="#ef476f" stroke="#ef476f" points="95.35,-325.85 90.02,-316.7 88.48,-327.18 95.35,-325.85"/>
<text text-anchor="middle" x="123.5" y="-338.79" font-family="Times,serif" font-size="14.00" fill="#ef476f"> &#160;A, A, L &#160;</text>
</g>
<!-- q5&#45;&gt;q3 -->
<g id="edge13" class="edge">
<title>q5&#45;&gt;q3</title>
<path fill="none" stroke="#ffb20f" d="M70.68,-309.37C54.56,-321.51 30.55,-342.8 20.5,-367.99 10.04,-394.19 15.16,-426.69 21.26,-449.25"/>
<polygon fill="#ffb20f" stroke="#ffb20f" points="17.91,-450.25 24.08,-458.86 24.62,-448.28 17.91,-450.25"/>
<text text-anchor="middle" x="48" y="-383.78" font-family="Times,serif" font-size="14.00" fill="#ffb20f"> &#160;1, A, R &#160;</text>
</g>
<!-- q5&#45;&gt;q5 -->
<g id="edge14" class="edge">
<title>q5&#45;&gt;q5</title>
<path fill="none" stroke="#1a936f" d="M104.63,-305.34C114.71,-306.81 124,-304.19 124,-297.49 124,-293.19 120.19,-290.58 114.8,-289.63"/>
<polygon fill="#1a936f" stroke="#1a936f" points="114.63,-286.13 104.63,-289.63 114.63,-293.13 114.63,-286.13"/>
<text text-anchor="middle" x="152" y="-293.79" font-family="Times,serif" font-size="14.00" fill="#1a936f"> &#160;A, A, L &#160;</text>
</g>
<!-- q6 -->
<g id="node8" class="node">
<title>q6</title>
<ellipse fill="none" stroke="#555555" cx="295.5" cy="-207.49" rx="19.5" ry="19.5"/>
<text text-anchor="middle" x="295.5" y="-203.79" font-family="Times,serif" font-size="14.00" fill="#555555">q6</text>
</g>
<!-- q5&#45;&gt;q6 -->
<g id="edge15" class="edge">
<title>q5&#45;&gt;q6</title>
<path fill="none" stroke="#555555" d="M104.9,-290.74C138.06,-280.08 209.7,-255.71 266.5,-226.99 268.04,-226.21 269.6,-225.37 271.16,-224.5"/>
<polygon fill="#555555" stroke="#555555" points="273.11,-227.41 279.88,-219.26 269.5,-221.41 273.11,-227.41"/>
<text text-anchor="middle" x="249" y="-248.79" font-family="Times,serif" font-size="14.00" fill="#555555"> &#160;$, $, R &#160;</text>
</g>
<!-- q7 -->
<g id="node9" class="node">
<title>q7</title>
<ellipse fill="none" stroke="#555555" cx="23.5" cy="-207.49" rx="19.5" ry="19.5"/>
<text text-anchor="middle" x="23.5" y="-203.79" font-family="Times,serif" font-size="14.00" fill="#555555">q7</text>
</g>
<!-- q5&#45;&gt;q7 -->
<g id="edge16" class="edge">
<title>q5&#45;&gt;q7</title>
<path fill="none" stroke="#26547c" d="M75.52,-281.16C65.83,-267.62 51.53,-247.65 40.38,-232.07"/>
<polygon fill="#26547c" stroke="#26547c" points="43.22,-230.03 34.56,-223.94 37.53,-234.11 43.22,-230.03"/>
<text text-anchor="middle" x="86" y="-248.79" font-family="Times,serif" font-size="14.00" fill="#26547c"> &#160;#, #, R &#160;</text>
</g>
<!-- q6&#45;&gt;q1 -->
<g id="edge19" class="edge">
<title>q6&#45;&gt;q1</title>
<path fill="none" stroke="#1a936f" d="M295.5,-227.03C295.5,-244.84 295.5,-272.5 295.5,-296.49 295.5,-568.48 295.5,-568.48 295.5,-568.48 295.5,-596.22 274.89,-621.67 257.83,-637.98"/>
<polygon fill="#1a936f" stroke="#1a936f" points="255.37,-635.49 250.33,-644.81 260.08,-640.67 255.37,-635.49"/>
<text text-anchor="middle" x="322" y="-428.78" font-family="Times,serif" font-size="14.00" fill="#1a936f"> &#160;#, #, R &#160;</text>
</g>
<!-- q6&#45;&gt;q6 -->
<g id="edge17" class="edge">
<title>q6&#45;&gt;q6</title>
<path fill="none" stroke="#ef476f" d="M314.79,-211.49C324.41,-212.05 333,-210.71 333,-207.49 333,-205.53 329.81,-204.26 325.14,-203.7"/>
<polygon fill="#ef476f" stroke="#ef476f" points="324.86,-200.2 314.79,-203.49 324.72,-207.2 324.86,-200.2"/>
<text text-anchor="middle" x="359.5" y="-203.79" font-family="Times,serif" font-size="14.00" fill="#ef476f"> &#160;1, 1, R &#160;</text>
</g>
<!-- q6&#45;&gt;q6 -->
<g id="edge18" class="edge">
<title>q6&#45;&gt;q6</title>
<path fill="none" stroke="#ffb20f" d="M314.43,-213.2C342.49,-217.95 386,-216.04 386,-207.49 386,-199.91 351.79,-197.55 324.47,-200.42"/>
<polygon fill="#ffb20f" stroke="#ffb20f" points="323.87,-196.97 314.43,-201.78 324.81,-203.91 323.87,-196.97"/>
<text text-anchor="middle" x="413.5" y="-203.79" font-family="Times,serif" font-size="14.00" fill="#ffb20f"> &#160;A, 1, R &#160;</text>
</g>
<!-- q7&#45;&gt;q7 -->
<g id="edge20" class="edge">
<title>q7&#45;&gt;q7</title>
<path fill="none" stroke="#555555" d="M43.18,-210.17C52.64,-210.51 61,-209.61 61,-207.49 61,-206.2 57.89,-205.36 53.33,-204.98"/>
<polygon fill="#555555" stroke="#555555" points="53.23,-201.48 43.18,-204.81 53.12,-208.48 53.23,-201.48"/>
<text text-anchor="middle" x="87.5" y="-203.79" font-family="Times,serif" font-size="14.00" fill="#555555"> &#160;1, 1, R &#160;</text>
</g>
<!-- q7&#45;&gt;q7 -->
<g id="edge21" class="edge">
<title>q7&#45;&gt;q7</title>
<path fill="none" stroke="#26547c" d="M42.85,-211.35C70.93,-214.45 114,-213.16 114,-207.49 114,-202.46 80.13,-200.88 52.89,-202.75"/>
<polygon fill="#26547c" stroke="#26547c" points="52.5,-199.27 42.85,-203.64 53.12,-206.24 52.5,-199.27"/>
<text text-anchor="middle" x="141.5" y="-203.79" font-family="Times,serif" font-size="14.00" fill="#26547c"> &#160;A, 1, R &#160;</text>
</g>
<!-- q7&#45;&gt;q7 -->
<g id="edge22" class="edge">
<title>q7&#45;&gt;q7</title>
<path fill="none" stroke="#ef476f" d="M42.68,-212.06C84.84,-218.19 169,-216.67 169,-207.49 169,-199 96.87,-197.06 52.71,-201.68"/>
<polygon fill="#ef476f" stroke="#ef476f" points="52.18,-198.22 42.68,-202.92 53.04,-205.17 52.18,-198.22"/>
<text text-anchor="middle" x="195.5" y="-203.79" font-family="Times,serif" font-size="14.00" fill="#ef476f"> &#160;#, #, R &#160;</text>
</g>
<!-- q8 -->
<g id="node10" class="node">
<title>q8</title>
<ellipse fill="none" stroke="#555555" cx="23.5" cy="-117.49" rx="19.5" ry="19.5"/>
<text text-anchor="middle" x="23.5" y="-113.79" font-family="Times,serif" font-size="14.00" fill="#555555">q8</text>
</g>
<!-- q7&#45;&gt;q8 -->
<g id="edge23" class="edge">
<title>q7&#45;&gt;q8</title>
<path fill="none" stroke="#ffb20f" d="M23.5,-187.83C23.5,-176.05 23.5,-160.59 23.5,-147.25"/>
<polygon fill="#ffb20f" stroke="#ffb20f" points="27,-147.13 23.5,-137.13 20,-147.13 27,-147.13"/>
<text text-anchor="middle" x="51.5" y="-158.79" font-family="Times,serif" font-size="14.00" fill="#ffb20f"> &#160;B, B, L &#160;</text>
</g>
<!-- q8&#45;&gt;q9 -->
<g id="edge24" class="edge">
<title>q8&#45;&gt;q9</title>
<path fill="none" stroke="#1a936f" d="M23.5,-97.88C23.5,-86.36 23.5,-71.24 23.5,-57.72"/>
<polygon fill="#1a936f" stroke="#1a936f" points="27,-57.32 23.5,-47.32 20,-57.32 27,-57.32"/>
<text text-anchor="middle" x="50.5" y="-68.8" font-family="Times,serif" font-size="14.00" fill="#1a936f"> &#160;1, B, L &#160;</text>
</g>
</g>
</svg>
