<?xml version="1.0" encoding="UTF-8" standalone="no"?>
<!DOCTYPE svg PUBLIC "-//W3C//DTD SVG 1.1//EN"
 "http://www.w3.org/Graphics/SVG/1.1/DTD/svg11.dtd">
<!-- Generated by graphviz version 2.43.0 (0)
 -->
<!-- Title: turing_machine Pages: 1 -->
<svg width="645pt" height="891pt"
 viewBox="0.00 0.00 644.55 891.16" xmlns="http://www.w3.org/2000/svg" xmlns:xlink="http://www.w3.org/1999/xlink">
<g id="graph0" class="graph" transform="scale(1 1) rotate(0) translate(4 887.16)">
<title>turing_machine</title>
<polygon fill="white" stroke="transparent" points="-4,4 -4,-887.16 640.55,-887.16 640.55,4 -4,4"/>
<!-- q0 -->
<g id="node1" class="node">
<title>q0</title>
<ellipse fill="#cccccc" stroke="#cccccc" cx="61.05" cy="-859.67" rx="19.5" ry="19.5"/>
<ellipse fill="none" stroke="#cccccc" cx="61.05" cy="-859.67" rx="23.5" ry="23.5"/>
<text text-anchor="middle" x="61.05" y="-855.97" font-family="Times,serif" font-size="14.00">q0</text>
</g>
<!-- q1 -->
<g id="node3" class="node">
<title>q1</title>
<ellipse fill="none" stroke="#555555" cx="61.05" cy="-765.67" rx="19.5" ry="19.5"/>
<text text-anchor="middle" x="61.05" y="-761.97" font-family="Times,serif" font-size="14.00" fill="#555555">q1</text>
</g>
<!-- q0&#45;&gt;q1 -->
<g id="edge1" class="edge">
<title>q0&#45;&gt;q1</title>
<path fill="none" stroke="#26547c" d="M61.05,-835.92C61.05,-823.79 61.05,-808.72 61.05,-795.74"/>
<polygon fill="#26547c" stroke="#26547c" points="64.55,-795.43 61.05,-785.43 57.55,-795.43 64.55,-795.43"/>
<text text-anchor="middle" x="87.55" y="-806.97" font-family="Times,serif" font-size="14.00" fill="#26547c"> &#160;$, $, R &#160;</text>
</g>
<!-- q10 -->
<g id="node2" class="node">
<title>q10</title>
<ellipse fill="none" stroke="#555555" cx="264.05" cy="-28.05" rx="24.09" ry="24.09"/>
<ellipse fill="none" stroke="#555555" cx="264.05" cy="-28.05" rx="28.1" ry="28.1"/>
<text text-anchor="middle" x="264.05" y="-24.35" font-family="Times,serif" font-size="14.00" fill="#555555">q10</text>
</g>
<!-- q1&#45;&gt;q1 -->
<g id="edge2" class="edge">
<title>q1&#45;&gt;q1</title>
<path fill="none" stroke="#ef476f" d="M79.18,-773.52C89.26,-774.99 98.55,-772.37 98.55,-765.67 98.55,-761.37 94.74,-758.76 89.35,-757.82"/>
<polygon fill="#ef476f" stroke="#ef476f" points="89.18,-754.32 79.18,-757.81 89.18,-761.32 89.18,-754.32"/>
<text text-anchor="middle" x="127.55" y="-761.97" font-family="Times,serif" font-size="14.00" fill="#ef476f"> &#160;A, A, R &#160;</text>
</g>
<!-- q2 -->
<g id="node4" class="node">
<title>q2</title>
<ellipse fill="none" stroke="#555555" cx="135.05" cy="-675.67" rx="19.5" ry="19.5"/>
<text text-anchor="middle" x="135.05" y="-671.97" font-family="Times,serif" font-size="14.00" fill="#555555">q2</text>
</g>
<!-- q1&#45;&gt;q2 -->
<g id="edge3" class="edge">
<title>q1&#45;&gt;q2</title>
<path fill="none" stroke="#ffb20f" d="M73.27,-750.14C84.94,-736.25 102.71,-715.12 116.2,-699.08"/>
<polygon fill="#ffb20f" stroke="#ffb20f" points="119.05,-701.13 122.81,-691.22 113.7,-696.63 119.05,-701.13"/>
<text text-anchor="middle" x="130.55" y="-716.97" font-family="Times,serif" font-size="14.00" fill="#ffb20f"> &#160;1, A, R &#160;</text>
</g>
<!-- q2&#45;&gt;q2 -->
<g id="edge4" class="edge">
<title>q2&#45;&gt;q2</title>
<path fill="none" stroke="#1a936f" d="M153.18,-683.53C163.26,-684.99 172.55,-682.38 172.55,-675.67 172.55,-671.38 168.74,-668.76 163.35,-667.82"/>
<polygon fill="#1a936f" stroke="#1a936f" points="163.18,-664.32 153.18,-667.82 163.18,-671.32 163.18,-664.32"/>
<text text-anchor="middle" x="199.05" y="-671.97" font-family="Times,serif" font-size="14.00" fill="#1a936f"> &#160;1, 1, R &#160;</text>
</g>
<!-- q3 -->
<g id="node5" class="node">
<title>q3</title>
<ellipse fill="none" stroke="#555555" cx="178.05" cy="-585.68" rx="19.5" ry="19.5"/>
<text text-anchor="middle" x="178.05" y="-581.98" font-family="Times,serif" font-size="14.00" fill="#555555">q3</text>
</g>
<!-- q2&#45;&gt;q3 -->
<g id="edge5" class="edge">
<title>q2&#45;&gt;q3</title>
<path fill="none" stroke="#555555" d="M143.34,-657.71C149.58,-644.92 158.26,-627.17 165.37,-612.61"/>
<polygon fill="#555555" stroke="#555555" points="168.54,-614.11 169.78,-603.59 162.25,-611.04 168.54,-614.11"/>
<text text-anchor="middle" x="186.55" y="-626.97" font-family="Times,serif" font-size="14.00" fill="#555555"> &#160;#, #, R &#160;</text>
</g>
<!-- q3&#45;&gt;q3 -->
<g id="edge6" class="edge">
<title>q3&#45;&gt;q3</title>
<path fill="none" stroke="#26547c" d="M196.18,-593.53C206.26,-595 215.55,-592.38 215.55,-585.68 215.55,-581.38 211.74,-578.76 206.35,-577.82"/>
<polygon fill="#26547c" stroke="#26547c" points="206.18,-574.32 196.18,-577.82 206.18,-581.32 206.18,-574.32"/>
<text text-anchor="middle" x="243.55" y="-581.98" font-family="Times,serif" font-size="14.00" fill="#26547c"> &#160;Z, Z, R &#160;</text>
</g>
<!-- q4 -->
<g id="node6" class="node">
<title>q4</title>
<ellipse fill="none" stroke="#555555" cx="216.05" cy="-495.68" rx="19.5" ry="19.5"/>
<text text-anchor="middle" x="216.05" y="-491.98" font-family="Times,serif" font-size="14.00" fill="#555555">q4</text>
</g>
<!-- q3&#45;&gt;q4 -->
<g id="edge7" class="edge">
<title>q3&#45;&gt;q4</title>
<path fill="none" stroke="#ef476f" d="M185.56,-567.29C190.97,-554.76 198.37,-537.61 204.53,-523.35"/>
<polygon fill="#ef476f" stroke="#ef476f" points="207.8,-524.6 208.56,-514.03 201.38,-521.82 207.8,-524.6"/>
<text text-anchor="middle" x="227.55" y="-536.98" font-family="Times,serif" font-size="14.00" fill="#ef476f"> &#160;1, Z, R &#160;</text>
</g>
<!-- q5 -->
<g id="node7" class="node">
<title>q5</title>
<ellipse fill="none" stroke="#555555" cx="373.05" cy="-401.13" rx="19.5" ry="19.5"/>
<text text-anchor="middle" x="373.05" y="-397.43" font-family="Times,serif" font-size="14.00" fill="#555555">q5</text>
</g>
<!-- q4&#45;&gt;q5 -->
<g id="edge8" class="edge">
<title>q4&#45;&gt;q5</title>
<path fill="none" stroke="#ffb20f" d="M235.84,-493.69C262.84,-491.38 311.46,-483.7 343.05,-458.18 352.22,-450.77 358.96,-439.78 363.71,-429.49"/>
<polygon fill="#ffb20f" stroke="#ffb20f" points="367.05,-430.56 367.65,-419.98 360.59,-427.88 367.05,-430.56"/>
<text text-anchor="middle" x="381.05" y="-446.98" font-family="Times,serif" font-size="14.00" fill="#ffb20f"> &#160;#, #, L &#160;</text>
</g>
<!-- q41 -->
<g id="node8" class="node">
<title>q41</title>
<ellipse fill="none" stroke="#555555" cx="24.05" cy="-401.13" rx="24.1" ry="24.1"/>
<text text-anchor="middle" x="24.05" y="-397.43" font-family="Times,serif" font-size="14.00" fill="#555555">q41</text>
</g>
<!-- q4&#45;&gt;q41 -->
<g id="edge9" class="edge">
<title>q4&#45;&gt;q41</title>
<path fill="none" stroke="#1a936f" d="M198.67,-486.3C166.11,-470.61 95.54,-436.59 54.78,-416.95"/>
<polygon fill="#1a936f" stroke="#1a936f" points="56.11,-413.7 45.59,-412.51 53.07,-420.01 56.11,-413.7"/>
<text text-anchor="middle" x="164.05" y="-446.98" font-family="Times,serif" font-size="14.00" fill="#1a936f"> &#160;1, 1, L &#160;</text>
</g>
<!-- q42 -->
<g id="node13" class="node">
<title>q42</title>
<ellipse fill="none" stroke="#555555" cx="303.05" cy="-401.13" rx="24.1" ry="24.1"/>
<text text-anchor="middle" x="303.05" y="-397.43" font-family="Times,serif" font-size="14.00" fill="#555555">q42</text>
</g>
<!-- q4&#45;&gt;q42 -->
<g id="edge30" class="edge">
<title>q4&#45;&gt;q42</title>
<path fill="none" stroke="#555555" d="M233.41,-486.56C245.65,-480.18 261.8,-470.35 273.05,-458.18 279.82,-450.86 285.54,-441.73 290.12,-432.98"/>
<polygon fill="#555555" stroke="#555555" points="293.39,-434.25 294.63,-423.73 287.1,-431.18 293.39,-434.25"/>
<text text-anchor="middle" x="311.55" y="-446.98" font-family="Times,serif" font-size="14.00" fill="#555555"> &#160;B, #, R &#160;</text>
</g>
<!-- q5&#45;&gt;q5 -->
<g id="edge14" class="edge">
<title>q5&#45;&gt;q5</title>
<path fill="none" stroke="#1a936f" d="M392.34,-404.04C401.96,-404.45 410.55,-403.48 410.55,-401.13 410.55,-399.7 407.36,-398.79 402.69,-398.38"/>
<polygon fill="#1a936f" stroke="#1a936f" points="402.39,-394.87 392.34,-398.22 402.29,-401.87 402.39,-394.87"/>
<text text-anchor="middle" x="436.55" y="-397.43" font-family="Times,serif" font-size="14.00" fill="#1a936f"> &#160;1, 1, L &#160;</text>
</g>
<!-- q5&#45;&gt;q5 -->
<g id="edge15" class="edge">
<title>q5&#45;&gt;q5</title>
<path fill="none" stroke="#555555" d="M392.27,-405.34C420.07,-408.72 462.55,-407.32 462.55,-401.13 462.55,-395.67 429.45,-393.94 402.56,-395.94"/>
<polygon fill="#555555" stroke="#555555" points="401.89,-392.48 392.27,-396.93 402.56,-399.45 401.89,-392.48"/>
<text text-anchor="middle" x="488.55" y="-397.43" font-family="Times,serif" font-size="14.00" fill="#555555"> &#160;#, #, L &#160;</text>
</g>
<!-- q5&#45;&gt;q5 -->
<g id="edge16" class="edge">
<title>q5&#45;&gt;q5</title>
<path fill="none" stroke="#26547c" d="M391.94,-406.12C433.17,-412.8 514.55,-411.14 514.55,-401.13 514.55,-391.89 445.09,-389.77 402.01,-394.77"/>
<polygon fill="#26547c" stroke="#26547c" points="401.37,-391.32 391.94,-396.15 402.32,-398.26 401.37,-391.32"/>
<text text-anchor="middle" x="542.05" y="-397.43" font-family="Times,serif" font-size="14.00" fill="#26547c"> &#160;Z, Z, L &#160;</text>
</g>
<!-- q6 -->
<g id="node9" class="node">
<title>q6</title>
<ellipse fill="none" stroke="#555555" cx="336.05" cy="-306.59" rx="19.5" ry="19.5"/>
<text text-anchor="middle" x="336.05" y="-302.89" font-family="Times,serif" font-size="14.00" fill="#555555">q6</text>
</g>
<!-- q5&#45;&gt;q6 -->
<g id="edge17" class="edge">
<title>q5&#45;&gt;q6</title>
<path fill="none" stroke="#ef476f" d="M358.34,-388.09C350.43,-380.66 341.43,-370.4 337.05,-359.09 334.32,-352.06 333.29,-344.08 333.12,-336.53"/>
<polygon fill="#ef476f" stroke="#ef476f" points="336.62,-336.38 333.38,-326.3 329.63,-336.2 336.62,-336.38"/>
<text text-anchor="middle" x="366.05" y="-347.89" font-family="Times,serif" font-size="14.00" fill="#ef476f"> &#160;A, A, R &#160;</text>
</g>
<!-- q41&#45;&gt;q1 -->
<g id="edge13" class="edge">
<title>q41&#45;&gt;q1</title>
<path fill="none" stroke="#ffb20f" d="M31.87,-423.88C37.84,-442.44 45.05,-469.97 45.05,-494.68 45.05,-676.67 45.05,-676.67 45.05,-676.67 45.05,-696.99 49.23,-719.53 53.31,-736.7"/>
<polygon fill="#ffb20f" stroke="#ffb20f" points="49.98,-737.79 55.81,-746.64 56.77,-736.09 49.98,-737.79"/>
<text text-anchor="middle" x="74.05" y="-581.98" font-family="Times,serif" font-size="14.00" fill="#ffb20f"> &#160;A, A, R &#160;</text>
</g>
<!-- q41&#45;&gt;q41 -->
<g id="edge10" class="edge">
<title>q41&#45;&gt;q41</title>
<path fill="none" stroke="#555555" d="M48.25,-404.11C57.95,-404.28 66.1,-403.29 66.1,-401.13 66.1,-399.82 63.07,-398.94 58.51,-398.49"/>
<polygon fill="#555555" stroke="#555555" points="58.35,-394.98 48.25,-398.15 58.13,-401.98 58.35,-394.98"/>
<text text-anchor="middle" x="92.1" y="-397.43" font-family="Times,serif" font-size="14.00" fill="#555555"> &#160;1, 1, L &#160;</text>
</g>
<!-- q41&#45;&gt;q41 -->
<g id="edge11" class="edge">
<title>q41&#45;&gt;q41</title>
<path fill="none" stroke="#26547c" d="M48.11,-405.73C77.32,-408.6 118.1,-407.07 118.1,-401.13 118.1,-395.87 86.03,-394.07 58.4,-395.73"/>
<polygon fill="#26547c" stroke="#26547c" points="57.8,-392.27 48.11,-396.54 58.35,-399.25 57.8,-392.27"/>
<text text-anchor="middle" x="145.6" y="-397.43" font-family="Times,serif" font-size="14.00" fill="#26547c"> &#160;Z, Z, L &#160;</text>
</g>
<!-- q41&#45;&gt;q41 -->
<g id="edge12" class="edge">
<title>q41&#45;&gt;q41</title>
<path fill="none" stroke="#ef476f" d="M47.46,-406.62C91.88,-412.71 173.1,-410.88 173.1,-401.13 173.1,-392.09 103.19,-389.86 57.62,-394.45"/>
<polygon fill="#ef476f" stroke="#ef476f" points="56.99,-391 47.46,-395.65 57.8,-397.95 56.99,-391"/>
<text text-anchor="middle" x="199.1" y="-397.43" font-family="Times,serif" font-size="14.00" fill="#ef476f"> &#160;#, #, L &#160;</text>
</g>
<!-- q8 -->
<g id="node10" class="node">
<title>q8</title>
<ellipse fill="none" stroke="#555555" cx="264.05" cy="-216.59" rx="19.5" ry="19.5"/>
<text text-anchor="middle" x="264.05" y="-212.89" font-family="Times,serif" font-size="14.00" fill="#555555">q8</text>
</g>
<!-- q6&#45;&gt;q8 -->
<g id="edge18" class="edge">
<title>q6&#45;&gt;q8</title>
<path fill="none" stroke="#ffb20f" d="M318.04,-298.52C305.08,-292.55 288.17,-282.76 278.05,-269.09 273.09,-262.39 269.88,-254.03 267.81,-246.02"/>
<polygon fill="#ffb20f" stroke="#ffb20f" points="271.23,-245.26 265.76,-236.19 264.38,-246.7 271.23,-245.26"/>
<text text-anchor="middle" x="304.05" y="-257.89" font-family="Times,serif" font-size="14.00" fill="#ffb20f"> &#160;#, #, L &#160;</text>
</g>
<!-- q7 -->
<g id="node11" class="node">
<title>q7</title>
<ellipse fill="none" stroke="#555555" cx="401.05" cy="-216.59" rx="19.5" ry="19.5"/>
<text text-anchor="middle" x="401.05" y="-212.89" font-family="Times,serif" font-size="14.00" fill="#555555">q7</text>
</g>
<!-- q6&#45;&gt;q7 -->
<g id="edge19" class="edge">
<title>q6&#45;&gt;q7</title>
<path fill="none" stroke="#1a936f" d="M333.51,-287.16C333,-276.72 334,-263.85 340.05,-254.09 342.28,-250.49 359.61,-240.28 375.23,-231.57"/>
<polygon fill="#1a936f" stroke="#1a936f" points="377.04,-234.57 384.11,-226.68 373.66,-228.44 377.04,-234.57"/>
<text text-anchor="middle" x="367.55" y="-257.89" font-family="Times,serif" font-size="14.00" fill="#1a936f"> &#160;1, A, R &#160;</text>
</g>
<!-- q8&#45;&gt;q8 -->
<g id="edge24" class="edge">
<title>q8&#45;&gt;q8</title>
<path fill="none" stroke="#1a936f" d="M282.18,-224.45C292.26,-225.91 301.55,-223.29 301.55,-216.59 301.55,-212.3 297.74,-209.68 292.35,-208.74"/>
<polygon fill="#1a936f" stroke="#1a936f" points="292.18,-205.24 282.18,-208.74 292.18,-212.24 292.18,-205.24"/>
<text text-anchor="middle" x="328.55" y="-212.89" font-family="Times,serif" font-size="14.00" fill="#1a936f"> &#160;A, 1, L &#160;</text>
</g>
<!-- q9 -->
<g id="node12" class="node">
<title>q9</title>
<ellipse fill="none" stroke="#555555" cx="264.05" cy="-126.59" rx="19.5" ry="19.5"/>
<text text-anchor="middle" x="264.05" y="-122.89" font-family="Times,serif" font-size="14.00" fill="#555555">q9</text>
</g>
<!-- q8&#45;&gt;q9 -->
<g id="edge25" class="edge">
<title>q8&#45;&gt;q9</title>
<path fill="none" stroke="#555555" d="M264.05,-196.93C264.05,-185.15 264.05,-169.68 264.05,-156.35"/>
<polygon fill="#555555" stroke="#555555" points="267.55,-156.23 264.05,-146.23 260.55,-156.23 267.55,-156.23"/>
<text text-anchor="middle" x="290.55" y="-167.89" font-family="Times,serif" font-size="14.00" fill="#555555"> &#160;$, $, R &#160;</text>
</g>
<!-- q7&#45;&gt;q5 -->
<g id="edge23" class="edge">
<title>q7&#45;&gt;q5</title>
<path fill="none" stroke="#ffb20f" d="M402.86,-236.31C404.95,-263.79 406.73,-316.4 395.05,-359.09 393.53,-364.64 391.15,-370.28 388.51,-375.54"/>
<polygon fill="#ffb20f" stroke="#ffb20f" points="385.35,-374.01 383.6,-384.46 391.48,-377.39 385.35,-374.01"/>
<text text-anchor="middle" x="431.05" y="-302.89" font-family="Times,serif" font-size="14.00" fill="#ffb20f"> &#160;B, 1, L &#160;</text>
</g>
<!-- q7&#45;&gt;q7 -->
<g id="edge20" class="edge">
<title>q7&#45;&gt;q7</title>
<path fill="none" stroke="#555555" d="M420.73,-219.27C430.19,-219.6 438.55,-218.71 438.55,-216.59 438.55,-215.3 435.44,-214.46 430.88,-214.08"/>
<polygon fill="#555555" stroke="#555555" points="430.78,-210.58 420.73,-213.91 430.66,-217.58 430.78,-210.58"/>
<text text-anchor="middle" x="465.05" y="-212.89" font-family="Times,serif" font-size="14.00" fill="#555555"> &#160;1, 1, R &#160;</text>
</g>
<!-- q7&#45;&gt;q7 -->
<g id="edge21" class="edge">
<title>q7&#45;&gt;q7</title>
<path fill="none" stroke="#26547c" d="M420.4,-220.45C448.48,-223.55 491.55,-222.26 491.55,-216.59 491.55,-211.56 457.68,-209.98 430.43,-211.85"/>
<polygon fill="#26547c" stroke="#26547c" points="430.05,-208.37 420.4,-212.74 430.67,-215.34 430.05,-208.37"/>
<text text-anchor="middle" x="518.05" y="-212.89" font-family="Times,serif" font-size="14.00" fill="#26547c"> &#160;#, #, R &#160;</text>
</g>
<!-- q7&#45;&gt;q7 -->
<g id="edge22" class="edge">
<title>q7&#45;&gt;q7</title>
<path fill="none" stroke="#ef476f" d="M420.09,-221.16C461.78,-227.29 544.55,-225.76 544.55,-216.59 544.55,-208.12 473.91,-206.17 430.27,-210.75"/>
<polygon fill="#ef476f" stroke="#ef476f" points="429.58,-207.31 420.09,-212.02 430.44,-214.26 429.58,-207.31"/>
<text text-anchor="middle" x="572.55" y="-212.89" font-family="Times,serif" font-size="14.00" fill="#ef476f"> &#160;Z, Z, R &#160;</text>
</g>
<!-- q9&#45;&gt;q10 -->
<g id="edge29" class="edge">
<title>q9&#45;&gt;q10</title>
<path fill="none" stroke="#1a936f" d="M264.05,-106.98C264.05,-95.54 264.05,-80.47 264.05,-66.63"/>
<polygon fill="#1a936f" stroke="#1a936f" points="267.55,-66.38 264.05,-56.38 260.55,-66.38 267.55,-66.38"/>
<text text-anchor="middle" x="291.55" y="-77.9" font-family="Times,serif" font-size="14.00" fill="#1a936f"> &#160;B, 1, R &#160;</text>
</g>
<!-- q9&#45;&gt;q9 -->
<g id="edge26" class="edge">
<title>q9&#45;&gt;q9</title>
<path fill="none" stroke="#26547c" d="M283.73,-129.28C293.19,-129.61 301.55,-128.71 301.55,-126.59 301.55,-125.3 298.44,-124.47 293.88,-124.08"/>
<polygon fill="#26547c" stroke="#26547c" points="293.78,-120.58 283.73,-123.91 293.66,-127.58 293.78,-120.58"/>
<text text-anchor="middle" x="328.05" y="-122.89" font-family="Times,serif" font-size="14.00" fill="#26547c"> &#160;1, 1, R &#160;</text>
</g>
<!-- q9&#45;&gt;q9 -->
<g id="edge27" class="edge">
<title>q9&#45;&gt;q9</title>
<path fill="none" stroke="#ef476f" d="M283.4,-130.45C311.48,-133.55 354.55,-132.27 354.55,-126.59 354.55,-121.56 320.68,-119.98 293.43,-121.85"/>
<polygon fill="#ef476f" stroke="#ef476f" points="293.05,-118.37 283.4,-122.74 293.67,-125.35 293.05,-118.37"/>
<text text-anchor="middle" x="381.05" y="-122.89" font-family="Times,serif" font-size="14.00" fill="#ef476f"> &#160;#, #, R &#160;</text>
</g>
<!-- q9&#45;&gt;q9 -->
<g id="edge28" class="edge">
<title>q9&#45;&gt;q9</title>
<path fill="none" stroke="#ffb20f" d="M283.09,-131.16C324.78,-137.29 407.55,-135.77 407.55,-126.59 407.55,-118.12 336.91,-116.17 293.27,-120.76"/>
<polygon fill="#ffb20f" stroke="#ffb20f" points="292.58,-117.32 283.09,-122.03 293.44,-124.26 292.58,-117.32"/>
<text text-anchor="middle" x="435.05" y="-122.89" font-family="Times,serif" font-size="14.00" fill="#ffb20f"> &#160;Z, 1, R &#160;</text>
</g>
<!-- q42&#45;&gt;q4 -->
<g id="edge31" class="edge">
<title>q42&#45;&gt;q4</title>
<path fill="none" stroke="#26547c" d="M284.46,-416.57C279.91,-419.69 274.94,-422.77 270.05,-425.18 246.22,-436.92 228.75,-421.75 213.05,-443.18 208.13,-449.89 207.18,-458.5 207.96,-466.75"/>
<polygon fill="#26547c" stroke="#26547c" points="204.55,-467.59 209.7,-476.85 211.45,-466.4 204.55,-467.59"/>
<text text-anchor="middle" x="241.05" y="-446.98" font-family="Times,serif" font-size="14.00" fill="#26547c"> &#160;B, B, L &#160;</text>
</g>
</g>
</svg>
